<mxfile host="app.diagrams.net" modified="2024-06-16T11:45:17.579Z" agent="Mozilla/5.0 (Windows NT 10.0; Win64; x64) AppleWebKit/537.36 (KHTML, like Gecko) Chrome/126.0.0.0 Safari/537.36 Edg/126.0.0.0" etag="RuoNisOZnU9WdhI0kZJC" version="24.5.4" type="github">
  <diagram name="第 1 页" id="tr9MtNZkAbBFNGbyeL2_">
    <mxGraphModel dx="1297" dy="844" grid="1" gridSize="10" guides="1" tooltips="1" connect="1" arrows="1" fold="1" page="1" pageScale="1" pageWidth="800" pageHeight="1280" math="0" shadow="0">
      <root>
        <mxCell id="0" />
        <mxCell id="1" parent="0" />
        <mxCell id="ZyRGpIHOSIbv2tQFG93P-1" value="干旱检测" style="swimlane;fillColor=#e1d5e7;strokeColor=#9673a6;" parent="1" vertex="1">
          <mxGeometry x="950" y="360" width="370" height="610" as="geometry" />
        </mxCell>
        <mxCell id="ZyRGpIHOSIbv2tQFG93P-2" value="验证" style="rounded=1;whiteSpace=wrap;html=1;arcSize=36;shadow=1;dashed=1;dashPattern=8 8;strokeColor=#b46504;align=center;verticalAlign=middle;fontFamily=Helvetica;fontSize=12;fontColor=default;fontStyle=0;fillColor=#fad7ac;gradientColor=#fee59a;direction=east;" parent="ZyRGpIHOSIbv2tQFG93P-1" vertex="1">
          <mxGeometry x="25" y="80" width="90" height="50" as="geometry" />
        </mxCell>
        <mxCell id="ZyRGpIHOSIbv2tQFG93P-78" style="edgeStyle=orthogonalEdgeStyle;rounded=0;orthogonalLoop=1;jettySize=auto;html=1;exitX=0.5;exitY=0;exitDx=0;exitDy=0;entryX=0.5;entryY=1;entryDx=0;entryDy=0;" parent="ZyRGpIHOSIbv2tQFG93P-1" source="ZyRGpIHOSIbv2tQFG93P-3" target="ZyRGpIHOSIbv2tQFG93P-6" edge="1">
          <mxGeometry relative="1" as="geometry" />
        </mxCell>
        <mxCell id="ZyRGpIHOSIbv2tQFG93P-3" value="填补空缺TWSA" style="ellipse;whiteSpace=wrap;html=1;fillColor=#c0d0f7;strokeColor=#56517e;align=center;verticalAlign=middle;fontFamily=Helvetica;fontSize=12;shadow=1;fontStyle=0;fontColor=default;direction=east;" parent="ZyRGpIHOSIbv2tQFG93P-1" vertex="1">
          <mxGeometry x="20" y="490" width="100" height="60" as="geometry" />
        </mxCell>
        <mxCell id="ZyRGpIHOSIbv2tQFG93P-4" value="" style="edgeStyle=orthogonalEdgeStyle;rounded=0;orthogonalLoop=1;jettySize=auto;html=1;entryX=0;entryY=0.5;entryDx=0;entryDy=0;" parent="ZyRGpIHOSIbv2tQFG93P-1" source="ZyRGpIHOSIbv2tQFG93P-6" target="ZyRGpIHOSIbv2tQFG93P-8" edge="1">
          <mxGeometry relative="1" as="geometry">
            <mxPoint x="70" y="260" as="targetPoint" />
          </mxGeometry>
        </mxCell>
        <mxCell id="ZyRGpIHOSIbv2tQFG93P-81" style="edgeStyle=orthogonalEdgeStyle;rounded=0;orthogonalLoop=1;jettySize=auto;html=1;exitX=1;exitY=0.5;exitDx=0;exitDy=0;entryX=0;entryY=0.5;entryDx=0;entryDy=0;" parent="ZyRGpIHOSIbv2tQFG93P-1" source="ZyRGpIHOSIbv2tQFG93P-6" target="ZyRGpIHOSIbv2tQFG93P-11" edge="1">
          <mxGeometry relative="1" as="geometry" />
        </mxCell>
        <mxCell id="ZyRGpIHOSIbv2tQFG93P-6" value="WSD" style="ellipse;whiteSpace=wrap;html=1;fillColor=#c0d0f7;strokeColor=#56517e;align=center;verticalAlign=middle;fontFamily=Helvetica;fontSize=12;shadow=1;fontColor=default;fontStyle=0;direction=east;" parent="ZyRGpIHOSIbv2tQFG93P-1" vertex="1">
          <mxGeometry x="20" y="370" width="100" height="60" as="geometry" />
        </mxCell>
        <mxCell id="ZyRGpIHOSIbv2tQFG93P-7" style="edgeStyle=orthogonalEdgeStyle;rounded=0;orthogonalLoop=1;jettySize=auto;html=1;exitX=1;exitY=0.5;exitDx=0;exitDy=0;" parent="ZyRGpIHOSIbv2tQFG93P-1" source="ZyRGpIHOSIbv2tQFG93P-8" target="ZyRGpIHOSIbv2tQFG93P-2" edge="1">
          <mxGeometry relative="1" as="geometry">
            <mxPoint x="69.66666666666652" y="160" as="targetPoint" />
          </mxGeometry>
        </mxCell>
        <mxCell id="ZyRGpIHOSIbv2tQFG93P-8" value="WSDI" style="ellipse;whiteSpace=wrap;html=1;fillColor=#c0d0f7;strokeColor=#56517e;align=center;verticalAlign=middle;fontFamily=Helvetica;fontSize=12;shadow=1;fontColor=default;fontStyle=0;direction=north;" parent="ZyRGpIHOSIbv2tQFG93P-1" vertex="1">
          <mxGeometry x="40" y="180" width="60" height="95" as="geometry" />
        </mxCell>
        <mxCell id="ZyRGpIHOSIbv2tQFG93P-82" style="edgeStyle=orthogonalEdgeStyle;rounded=0;orthogonalLoop=1;jettySize=auto;html=1;exitX=1;exitY=0.5;exitDx=0;exitDy=0;entryX=0;entryY=0.5;entryDx=0;entryDy=0;" parent="ZyRGpIHOSIbv2tQFG93P-1" source="ZyRGpIHOSIbv2tQFG93P-11" target="ZyRGpIHOSIbv2tQFG93P-13" edge="1">
          <mxGeometry relative="1" as="geometry" />
        </mxCell>
        <mxCell id="ZyRGpIHOSIbv2tQFG93P-11" value="干旱识别" style="rounded=1;whiteSpace=wrap;html=1;fillColor=#fad7ac;strokeColor=#b46504;shadow=1;fontStyle=0;dashed=1;dashPattern=8 8;align=center;verticalAlign=middle;fontFamily=Helvetica;fontSize=12;fontColor=default;gradientColor=#fee59a;direction=east;" parent="ZyRGpIHOSIbv2tQFG93P-1" vertex="1">
          <mxGeometry x="140" y="380" width="90" height="40" as="geometry" />
        </mxCell>
        <mxCell id="ZyRGpIHOSIbv2tQFG93P-12" style="edgeStyle=orthogonalEdgeStyle;rounded=0;orthogonalLoop=1;jettySize=auto;html=1;exitX=0.5;exitY=0;exitDx=0;exitDy=0;entryX=0.5;entryY=1;entryDx=0;entryDy=0;" parent="ZyRGpIHOSIbv2tQFG93P-1" source="ZyRGpIHOSIbv2tQFG93P-13" target="ZyRGpIHOSIbv2tQFG93P-15" edge="1">
          <mxGeometry relative="1" as="geometry" />
        </mxCell>
        <mxCell id="ZyRGpIHOSIbv2tQFG93P-13" value="干旱量化" style="rounded=1;whiteSpace=wrap;html=1;fillColor=#fad7ac;strokeColor=#b46504;shadow=1;fontStyle=0;dashed=1;align=center;verticalAlign=middle;fontFamily=Helvetica;fontSize=12;fontColor=default;gradientColor=#fee59a;dashPattern=8 8;direction=east;" parent="ZyRGpIHOSIbv2tQFG93P-1" vertex="1">
          <mxGeometry x="260" y="380" width="90" height="40" as="geometry" />
        </mxCell>
        <mxCell id="ZyRGpIHOSIbv2tQFG93P-14" style="edgeStyle=orthogonalEdgeStyle;rounded=0;orthogonalLoop=1;jettySize=auto;html=1;exitX=0.5;exitY=0;exitDx=0;exitDy=0;entryX=0.5;entryY=1;entryDx=0;entryDy=0;" parent="ZyRGpIHOSIbv2tQFG93P-1" source="ZyRGpIHOSIbv2tQFG93P-15" target="ZyRGpIHOSIbv2tQFG93P-16" edge="1">
          <mxGeometry relative="1" as="geometry" />
        </mxCell>
        <mxCell id="ZyRGpIHOSIbv2tQFG93P-15" value="干旱原因" style="rounded=1;whiteSpace=wrap;html=1;fillColor=#fad7ac;strokeColor=#b46504;shadow=1;fontStyle=0;dashed=1;gradientColor=#fee59a;dashPattern=8 8;direction=east;" parent="ZyRGpIHOSIbv2tQFG93P-1" vertex="1">
          <mxGeometry x="260" y="240" width="90" height="40" as="geometry" />
        </mxCell>
        <mxCell id="ZyRGpIHOSIbv2tQFG93P-16" value="时间影响" style="rounded=1;whiteSpace=wrap;html=1;fillColor=#fad7ac;strokeColor=#b46504;shadow=1;fontStyle=0;dashed=1;gradientColor=#fee59a;dashPattern=8 8;direction=east;" parent="ZyRGpIHOSIbv2tQFG93P-1" vertex="1">
          <mxGeometry x="260" y="100" width="90" height="35" as="geometry" />
        </mxCell>
        <mxCell id="ZyRGpIHOSIbv2tQFG93P-17" value="重构与评价" style="swimlane;fillColor=#dae8fc;strokeColor=#6c8ebf;" parent="1" vertex="1">
          <mxGeometry x="620" y="360" width="330" height="610" as="geometry" />
        </mxCell>
        <mxCell id="ZyRGpIHOSIbv2tQFG93P-18" value="" style="rounded=1;whiteSpace=wrap;html=1;shadow=1;glass=0;fillColor=#b1ddf0;strokeColor=#10739e;rotation=-90;" parent="ZyRGpIHOSIbv2tQFG93P-17" vertex="1">
          <mxGeometry x="-125.62" y="291.88" width="386.25" height="95" as="geometry" />
        </mxCell>
        <mxCell id="ZyRGpIHOSIbv2tQFG93P-19" value="重构空缺部分TWSA" style="text;strokeColor=none;align=center;fillColor=none;html=1;verticalAlign=middle;whiteSpace=wrap;rounded=0;textDirection=vertical-lr;fontSize=17;fontFamily=Helvetica;" parent="ZyRGpIHOSIbv2tQFG93P-17" vertex="1">
          <mxGeometry x="30" y="150" width="70" height="370" as="geometry" />
        </mxCell>
        <mxCell id="ZyRGpIHOSIbv2tQFG93P-20" value="" style="rounded=0;whiteSpace=wrap;html=1;arcSize=15;glass=0;dashed=1;dashPattern=8 8;shadow=1;rotation=-90;" parent="ZyRGpIHOSIbv2tQFG93P-17" vertex="1">
          <mxGeometry x="150" y="365" width="170" height="120" as="geometry" />
        </mxCell>
        <mxCell id="ZyRGpIHOSIbv2tQFG93P-21" value="" style="verticalLabelPosition=bottom;verticalAlign=top;html=1;strokeWidth=2;shape=mxgraph.arrows2.arrow;dy=0.66;dx=18.78;notch=0;fillColor=#dae8fc;strokeColor=#6c8ebf;rotation=-180;" parent="ZyRGpIHOSIbv2tQFG93P-17" vertex="1">
          <mxGeometry x="120" y="420" width="50" height="25" as="geometry" />
        </mxCell>
        <mxCell id="ZyRGpIHOSIbv2tQFG93P-22" value="NSE" style="ellipse;whiteSpace=wrap;html=1;fillColor=#b1ddf0;strokeColor=#10739e;shadow=1;align=center;verticalAlign=middle;fontFamily=Helvetica;fontSize=12;direction=west;" parent="ZyRGpIHOSIbv2tQFG93P-17" vertex="1">
          <mxGeometry x="200" y="345" width="70" height="45" as="geometry" />
        </mxCell>
        <mxCell id="ZyRGpIHOSIbv2tQFG93P-23" value="PCC" style="ellipse;whiteSpace=wrap;html=1;fillColor=#b1ddf0;strokeColor=#10739e;align=center;verticalAlign=middle;fontFamily=Helvetica;fontSize=12;shadow=1;direction=west;" parent="ZyRGpIHOSIbv2tQFG93P-17" vertex="1">
          <mxGeometry x="200" y="460" width="70" height="45" as="geometry" />
        </mxCell>
        <mxCell id="ZyRGpIHOSIbv2tQFG93P-24" value="NRMSE" style="ellipse;whiteSpace=wrap;html=1;fillColor=#b1ddf0;strokeColor=#10739e;align=center;verticalAlign=middle;fontFamily=Helvetica;fontSize=12;shadow=1;direction=west;" parent="ZyRGpIHOSIbv2tQFG93P-17" vertex="1">
          <mxGeometry x="200" y="402.5" width="70" height="45" as="geometry" />
        </mxCell>
        <mxCell id="ZyRGpIHOSIbv2tQFG93P-25" value="重构评价指标" style="text;html=1;align=center;verticalAlign=middle;whiteSpace=wrap;rounded=0;rotation=0;direction=south;textDirection=vertical-lr;" parent="ZyRGpIHOSIbv2tQFG93P-17" vertex="1">
          <mxGeometry x="300" y="362.5" width="30" height="125" as="geometry" />
        </mxCell>
        <mxCell id="ZyRGpIHOSIbv2tQFG93P-27" value="数据集" style="swimlane;fillColor=#d5e8d4;strokeColor=#82b366;" parent="1" vertex="1">
          <mxGeometry x="170" y="360" width="460" height="610" as="geometry" />
        </mxCell>
        <mxCell id="ZyRGpIHOSIbv2tQFG93P-28" value="&lt;span style=&quot;font-weight: 700; text-wrap: nowrap;&quot;&gt;基本流程&lt;/span&gt;" style="text;strokeColor=none;align=center;fillColor=none;html=1;verticalAlign=middle;whiteSpace=wrap;rounded=0;textDirection=vertical-lr;" parent="ZyRGpIHOSIbv2tQFG93P-27" vertex="1">
          <mxGeometry y="160" width="20" height="60" as="geometry" />
        </mxCell>
        <mxCell id="ZyRGpIHOSIbv2tQFG93P-29" style="edgeStyle=orthogonalEdgeStyle;rounded=0;orthogonalLoop=1;jettySize=auto;html=1;exitX=1;exitY=0.5;exitDx=0;exitDy=0;" parent="ZyRGpIHOSIbv2tQFG93P-27" source="ZyRGpIHOSIbv2tQFG93P-30" edge="1">
          <mxGeometry relative="1" as="geometry">
            <mxPoint y="30.333333333333258" as="targetPoint" />
          </mxGeometry>
        </mxCell>
        <mxCell id="ZyRGpIHOSIbv2tQFG93P-30" value="" style="swimlane;direction=north;verticalAlign=top;fillColor=#f5f5f5;fontColor=#333333;strokeColor=#666666;" parent="ZyRGpIHOSIbv2tQFG93P-27" vertex="1">
          <mxGeometry y="20" width="20" height="590" as="geometry" />
        </mxCell>
        <mxCell id="ZyRGpIHOSIbv2tQFG93P-31" value="基本流程" style="text;strokeColor=none;align=center;fillColor=none;html=1;verticalAlign=middle;whiteSpace=wrap;rounded=0;" parent="ZyRGpIHOSIbv2tQFG93P-30" vertex="1">
          <mxGeometry y="205" width="20" height="110" as="geometry" />
        </mxCell>
        <mxCell id="ZyRGpIHOSIbv2tQFG93P-33" value="水文气候变量" style="text;html=1;align=center;verticalAlign=middle;whiteSpace=wrap;rounded=0;direction=south;" parent="ZyRGpIHOSIbv2tQFG93P-27" vertex="1">
          <mxGeometry x="32.49" y="269.5" width="90" height="38.5" as="geometry" />
        </mxCell>
        <mxCell id="ZyRGpIHOSIbv2tQFG93P-35" value="干旱指数" style="text;html=1;align=center;verticalAlign=middle;whiteSpace=wrap;rounded=0;direction=south;" parent="ZyRGpIHOSIbv2tQFG93P-27" vertex="1">
          <mxGeometry x="47.489999999999995" y="50" width="60" height="30" as="geometry" />
        </mxCell>
        <mxCell id="ZyRGpIHOSIbv2tQFG93P-37" value="GRACE&lt;span style=&quot;background-color: initial;&quot;&gt;/GFO TWSA&lt;/span&gt;" style="text;strokeColor=none;align=center;fillColor=none;html=1;verticalAlign=middle;whiteSpace=wrap;rounded=0;" parent="ZyRGpIHOSIbv2tQFG93P-27" vertex="1">
          <mxGeometry x="20" y="445" width="145" height="55" as="geometry" />
        </mxCell>
        <mxCell id="ZyRGpIHOSIbv2tQFG93P-38" value="" style="rounded=0;whiteSpace=wrap;html=1;arcSize=15;glass=0;dashed=1;dashPattern=8 8;shadow=1;direction=south;" parent="ZyRGpIHOSIbv2tQFG93P-27" vertex="1">
          <mxGeometry x="170.005" y="429" width="120" height="170" as="geometry" />
        </mxCell>
        <mxCell id="ZyRGpIHOSIbv2tQFG93P-39" value="CSR-M" style="ellipse;whiteSpace=wrap;html=1;fillColor=#dae8fc;gradientColor=#d7e7fe;strokeColor=#6c8ebf;align=center;verticalAlign=middle;fontFamily=Helvetica;fontSize=12;fontColor=default;shadow=1;direction=west;" parent="ZyRGpIHOSIbv2tQFG93P-27" vertex="1">
          <mxGeometry x="191.5" y="547.5" width="70" height="45" as="geometry" />
        </mxCell>
        <mxCell id="ZyRGpIHOSIbv2tQFG93P-40" value="GSFC-M" style="ellipse;whiteSpace=wrap;html=1;fillColor=#dae8fc;gradientColor=#d7e7fe;strokeColor=#6c8ebf;shadow=1;direction=west;" parent="ZyRGpIHOSIbv2tQFG93P-27" vertex="1">
          <mxGeometry x="191.5" y="434" width="70" height="45" as="geometry" />
        </mxCell>
        <mxCell id="ZyRGpIHOSIbv2tQFG93P-41" value="JPL-M" style="ellipse;whiteSpace=wrap;html=1;gradientColor=#d7e7fe;fillColor=#dae8fc;strokeColor=#6c8ebf;align=center;verticalAlign=middle;fontFamily=Helvetica;fontSize=12;fontColor=default;shadow=1;direction=west;" parent="ZyRGpIHOSIbv2tQFG93P-27" vertex="1">
          <mxGeometry x="191.5" y="491.5" width="70" height="45" as="geometry" />
        </mxCell>
        <mxCell id="ZyRGpIHOSIbv2tQFG93P-42" value="" style="rounded=0;whiteSpace=wrap;html=1;arcSize=15;glass=0;dashed=1;dashPattern=8 8;shadow=1;direction=south;" parent="ZyRGpIHOSIbv2tQFG93P-27" vertex="1">
          <mxGeometry x="170" y="40" width="120" height="170" as="geometry" />
        </mxCell>
        <mxCell id="ZyRGpIHOSIbv2tQFG93P-43" value="scPDSI" style="ellipse;whiteSpace=wrap;html=1;fillColor=#fad7ac;gradientColor=#fee59a;strokeColor=#b46504;align=center;verticalAlign=middle;fontFamily=Helvetica;fontSize=12;shadow=1;fontColor=default;direction=west;" parent="ZyRGpIHOSIbv2tQFG93P-27" vertex="1">
          <mxGeometry x="191.5" y="147.5" width="70" height="45" as="geometry" />
        </mxCell>
        <mxCell id="ZyRGpIHOSIbv2tQFG93P-44" value="SPEI" style="ellipse;whiteSpace=wrap;html=1;gradientColor=#fee59a;fillColor=#fad7ac;strokeColor=#b46504;align=center;verticalAlign=middle;fontFamily=Helvetica;fontSize=12;fontColor=default;shadow=1;direction=west;" parent="ZyRGpIHOSIbv2tQFG93P-27" vertex="1">
          <mxGeometry x="191.5" y="65" width="70" height="45" as="geometry" />
        </mxCell>
        <mxCell id="ZyRGpIHOSIbv2tQFG93P-47" value="" style="verticalLabelPosition=bottom;verticalAlign=top;html=1;strokeWidth=2;shape=mxgraph.arrows2.arrow;dy=0.72;dx=18.13;notch=0;fillColor=#dae8fc;strokeColor=#6c8ebf;" parent="ZyRGpIHOSIbv2tQFG93P-27" vertex="1">
          <mxGeometry x="120" y="500" width="50.01" height="28" as="geometry" />
        </mxCell>
        <mxCell id="ZyRGpIHOSIbv2tQFG93P-48" value="" style="rounded=0;whiteSpace=wrap;html=1;arcSize=15;glass=0;dashed=1;dashPattern=8 8;shadow=1;direction=south;" parent="ZyRGpIHOSIbv2tQFG93P-27" vertex="1">
          <mxGeometry x="170" y="237" width="120" height="170" as="geometry" />
        </mxCell>
        <mxCell id="ZyRGpIHOSIbv2tQFG93P-49" value="气温" style="ellipse;whiteSpace=wrap;html=1;fillColor=#fff2cc;gradientColor=#fee59a;strokeColor=#d6b656;shadow=1;align=center;verticalAlign=middle;fontFamily=Helvetica;fontSize=12;fontColor=default;direction=west;" parent="ZyRGpIHOSIbv2tQFG93P-27" vertex="1">
          <mxGeometry x="195" y="248" width="70" height="45" as="geometry" />
        </mxCell>
        <mxCell id="ZyRGpIHOSIbv2tQFG93P-50" value="SMS" style="ellipse;whiteSpace=wrap;html=1;gradientColor=#fee59a;fillColor=#fff2cc;strokeColor=#d6b656;align=center;verticalAlign=middle;fontFamily=Helvetica;fontSize=12;fontColor=default;shadow=1;direction=west;" parent="ZyRGpIHOSIbv2tQFG93P-27" vertex="1">
          <mxGeometry x="195" y="302" width="70" height="45" as="geometry" />
        </mxCell>
        <mxCell id="ZyRGpIHOSIbv2tQFG93P-51" value="降水" style="ellipse;whiteSpace=wrap;html=1;fillColor=#fff2cc;gradientColor=#fee59a;strokeColor=#d6b656;align=center;verticalAlign=middle;fontFamily=Helvetica;fontSize=12;shadow=1;fontColor=default;direction=west;" parent="ZyRGpIHOSIbv2tQFG93P-27" vertex="1">
          <mxGeometry x="195" y="360" width="70" height="45" as="geometry" />
        </mxCell>
        <mxCell id="ZyRGpIHOSIbv2tQFG93P-53" value="" style="verticalLabelPosition=bottom;verticalAlign=top;html=1;strokeWidth=2;shape=mxgraph.arrows2.arrow;dy=0.73;dx=23.23;notch=0;fillColor=#dae8fc;strokeColor=#6c8ebf;" parent="ZyRGpIHOSIbv2tQFG93P-27" vertex="1">
          <mxGeometry x="295" y="308.5" width="80" height="32" as="geometry" />
        </mxCell>
        <mxCell id="ZyRGpIHOSIbv2tQFG93P-55" value="目标变量" style="text;html=1;align=center;verticalAlign=middle;whiteSpace=wrap;rounded=0;direction=south;textDirection=vertical-lr;" parent="ZyRGpIHOSIbv2tQFG93P-27" vertex="1">
          <mxGeometry x="380" y="467.5" width="30" height="80" as="geometry" />
        </mxCell>
        <mxCell id="ZyRGpIHOSIbv2tQFG93P-57" value="驱动数据" style="text;html=1;align=center;verticalAlign=middle;whiteSpace=wrap;rounded=0;direction=south;textDirection=vertical-lr;" parent="ZyRGpIHOSIbv2tQFG93P-27" vertex="1">
          <mxGeometry x="380" y="283.5" width="30" height="82" as="geometry" />
        </mxCell>
        <mxCell id="ZyRGpIHOSIbv2tQFG93P-59" value="验证指数" style="text;html=1;align=center;verticalAlign=middle;whiteSpace=wrap;rounded=0;direction=south;textDirection=vertical-lr;" parent="ZyRGpIHOSIbv2tQFG93P-27" vertex="1">
          <mxGeometry x="375" y="65" width="30" height="80" as="geometry" />
        </mxCell>
        <mxCell id="ZyRGpIHOSIbv2tQFG93P-62" value="" style="html=1;shadow=0;dashed=0;align=center;verticalAlign=middle;shape=mxgraph.arrows2.arrow;dy=0.67;dx=25.97;direction=north;notch=0;fillColor=#dae8fc;strokeColor=#6c8ebf;gradientColor=#7ea6e0;" parent="ZyRGpIHOSIbv2tQFG93P-27" vertex="1">
          <mxGeometry x="56.230000000000004" y="163" width="42.51" height="85" as="geometry" />
        </mxCell>
        <mxCell id="ZyRGpIHOSIbv2tQFG93P-68" value="" style="strokeWidth=2;html=1;shape=mxgraph.flowchart.multi-document;whiteSpace=wrap;shadow=1;strokeColor=#d6b656;align=center;verticalAlign=middle;fontFamily=Helvetica;fontSize=12;fontColor=default;fillColor=#fff2cc;" parent="ZyRGpIHOSIbv2tQFG93P-27" vertex="1">
          <mxGeometry x="50" y="495" width="54.99" height="39" as="geometry" />
        </mxCell>
        <mxCell id="ZyRGpIHOSIbv2tQFG93P-69" value="" style="strokeWidth=2;html=1;shape=mxgraph.flowchart.multi-document;whiteSpace=wrap;shadow=1;strokeColor=#6c8ebf;align=center;verticalAlign=middle;fontFamily=Helvetica;fontSize=12;fontColor=default;fillColor=#dae8fc;" parent="ZyRGpIHOSIbv2tQFG93P-27" vertex="1">
          <mxGeometry x="50" y="308" width="54.99" height="39" as="geometry" />
        </mxCell>
        <mxCell id="ZyRGpIHOSIbv2tQFG93P-70" value="" style="verticalLabelPosition=bottom;verticalAlign=top;html=1;strokeWidth=2;shape=mxgraph.arrows2.arrow;dy=0.72;dx=18.13;notch=0;fillColor=#dae8fc;strokeColor=#6c8ebf;" parent="ZyRGpIHOSIbv2tQFG93P-27" vertex="1">
          <mxGeometry x="120" y="310.5" width="50.01" height="28" as="geometry" />
        </mxCell>
        <mxCell id="ZyRGpIHOSIbv2tQFG93P-71" value="" style="strokeWidth=2;html=1;shape=mxgraph.flowchart.multi-document;whiteSpace=wrap;shadow=1;strokeColor=#b46504;align=center;verticalAlign=middle;fontFamily=Helvetica;fontSize=12;fontColor=default;fillColor=#fad7ac;" parent="ZyRGpIHOSIbv2tQFG93P-27" vertex="1">
          <mxGeometry x="49.999999999999986" y="86" width="54.99" height="39" as="geometry" />
        </mxCell>
        <mxCell id="ZyRGpIHOSIbv2tQFG93P-73" value="" style="verticalLabelPosition=bottom;verticalAlign=top;html=1;strokeWidth=2;shape=mxgraph.arrows2.arrow;dy=0.72;dx=18.13;notch=0;fillColor=#dae8fc;strokeColor=#6c8ebf;" parent="ZyRGpIHOSIbv2tQFG93P-27" vertex="1">
          <mxGeometry x="119.99000000000001" y="91" width="50.01" height="28" as="geometry" />
        </mxCell>
        <mxCell id="ZyRGpIHOSIbv2tQFG93P-74" value="" style="verticalLabelPosition=bottom;verticalAlign=top;html=1;strokeWidth=2;shape=mxgraph.arrows2.arrow;dy=0.73;dx=23.23;notch=0;fillColor=#dae8fc;strokeColor=#6c8ebf;" parent="ZyRGpIHOSIbv2tQFG93P-27" vertex="1">
          <mxGeometry x="295" y="498.5" width="80" height="32" as="geometry" />
        </mxCell>
        <mxCell id="ZyRGpIHOSIbv2tQFG93P-75" value="" style="verticalLabelPosition=bottom;verticalAlign=top;html=1;strokeWidth=2;shape=mxgraph.arrows2.arrow;dy=0.73;dx=23.23;notch=0;fillColor=#dae8fc;strokeColor=#6c8ebf;" parent="ZyRGpIHOSIbv2tQFG93P-27" vertex="1">
          <mxGeometry x="295" y="89" width="80" height="32" as="geometry" />
        </mxCell>
        <mxCell id="ZyRGpIHOSIbv2tQFG93P-67" style="edgeStyle=orthogonalEdgeStyle;rounded=0;orthogonalLoop=1;jettySize=auto;html=1;exitX=0.5;exitY=1;exitDx=0;exitDy=0;" parent="1" source="ZyRGpIHOSIbv2tQFG93P-19" edge="1">
          <mxGeometry relative="1" as="geometry">
            <mxPoint x="685" y="950" as="targetPoint" />
          </mxGeometry>
        </mxCell>
        <mxCell id="ZyRGpIHOSIbv2tQFG93P-61" value="" style="edgeStyle=orthogonalEdgeStyle;rounded=0;orthogonalLoop=1;jettySize=auto;html=1;exitX=1;exitY=0.5;exitDx=0;exitDy=0;entryX=0.5;entryY=1;entryDx=0;entryDy=0;" parent="1" source="ZyRGpIHOSIbv2tQFG93P-55" target="ZyRGpIHOSIbv2tQFG93P-3" edge="1">
          <mxGeometry relative="1" as="geometry">
            <mxPoint x="540" y="918" as="sourcePoint" />
            <mxPoint x="1020" y="920" as="targetPoint" />
            <Array as="points">
              <mxPoint x="565" y="950" />
              <mxPoint x="1020" y="950" />
            </Array>
          </mxGeometry>
        </mxCell>
        <mxCell id="ZyRGpIHOSIbv2tQFG93P-83" style="edgeStyle=orthogonalEdgeStyle;rounded=0;orthogonalLoop=1;jettySize=auto;html=1;exitX=0.5;exitY=0;exitDx=0;exitDy=0;entryX=0;entryY=0.5;entryDx=0;entryDy=0;" parent="1" source="ZyRGpIHOSIbv2tQFG93P-59" target="ZyRGpIHOSIbv2tQFG93P-2" edge="1">
          <mxGeometry relative="1" as="geometry" />
        </mxCell>
        <mxCell id="ZyRGpIHOSIbv2tQFG93P-84" style="edgeStyle=orthogonalEdgeStyle;rounded=0;orthogonalLoop=1;jettySize=auto;html=1;exitX=0.5;exitY=0;exitDx=0;exitDy=0;entryX=0.539;entryY=0.027;entryDx=0;entryDy=0;entryPerimeter=0;" parent="1" source="ZyRGpIHOSIbv2tQFG93P-57" target="ZyRGpIHOSIbv2tQFG93P-18" edge="1">
          <mxGeometry relative="1" as="geometry" />
        </mxCell>
        <mxCell id="ZyRGpIHOSIbv2tQFG93P-86" style="edgeStyle=orthogonalEdgeStyle;rounded=0;orthogonalLoop=1;jettySize=auto;html=1;exitX=0.5;exitY=0;exitDx=0;exitDy=0;entryX=0.064;entryY=0.019;entryDx=0;entryDy=0;entryPerimeter=0;" parent="1" source="ZyRGpIHOSIbv2tQFG93P-55" target="ZyRGpIHOSIbv2tQFG93P-18" edge="1">
          <mxGeometry relative="1" as="geometry" />
        </mxCell>
      </root>
    </mxGraphModel>
  </diagram>
</mxfile>
